<mxfile host="65bd71144e" modified="2020-10-19T14:54:56.850Z" agent="5.0 (Macintosh; Intel Mac OS X 10_13_6) AppleWebKit/537.36 (KHTML, like Gecko) Code/1.50.1 Chrome/83.0.4103.122 Electron/9.2.1 Safari/537.36" version="13.6.5" etag="M9k_D7o6oiVc5aXQwdJr">
    <diagram id="VQ4RFuTKxU5JmmapMewc" name="info">
        <mxGraphModel dx="2367" dy="1343" grid="1" gridSize="10" guides="1" tooltips="1" connect="1" arrows="1" fold="1" page="1" pageScale="1" pageWidth="1169" pageHeight="827" math="0" shadow="0">
            <root>
                <mxCell id="0"/>
                <mxCell id="1" parent="0"/>
                <mxCell id="2" value="Companies -&amp;gt; Domains Permmited&lt;br&gt;AuthGuard - Endpoint Security&lt;br&gt;AuthInterceptor - Token Security" style="text;html=1;align=left;verticalAlign=middle;resizable=0;points=[];autosize=1;" vertex="1" parent="1">
                    <mxGeometry x="70" y="80" width="200" height="40" as="geometry"/>
                </mxCell>
            </root>
        </mxGraphModel>
    </diagram>
</mxfile>
